<svg width="72" height="72" viewBox="0 0 72 72" fill="none" xmlns="http://www.w3.org/2000/svg">
<path d="M33.44 42C33.0433 42 32.53 41.5333 31.9 40.6C31.2933 39.6433 30.4183 38.15 29.275 36.12C29.135 35.8633 28.7383 35.175 28.085 34.055C27.455 32.9117 26.86 31.9317 26.3 31.115C25.7633 30.2983 25.285 29.6567 24.865 29.19L21.33 33.18V39.935L24.515 40.285V42H14.68V40.285L17.585 39.935V18.165L14.715 17.745V15.995H24.235V17.745L21.33 18.165V30.415L31.62 18.165L28.68 17.745V15.995H37.325V17.745L34.63 18.165L27.07 26.635C27.8867 27.335 28.75 28.35 29.66 29.68C30.5933 31.01 31.725 32.725 33.055 34.825C34.1983 36.6217 35.0267 37.905 35.54 38.675C36.0767 39.4217 36.4967 39.83 36.8 39.9L38.445 40.285V42H33.44Z" fill="white"/>
<path d="M40.515 28.165L37.645 27.745V25.995H42.37C43.1633 25.995 44.1667 25.9483 45.38 25.855C46.5 25.7617 47.3283 25.715 47.865 25.715C51.085 25.715 53.3833 26.2167 54.76 27.22C56.16 28.2233 56.86 29.6933 56.86 31.63C56.86 33.2867 56.3817 34.71 55.425 35.9C54.4683 37.09 53.1617 37.8367 51.505 38.14C53.745 38.0933 55.5067 38.6183 56.79 39.715C58.0733 40.8117 58.715 42.305 58.715 44.195C58.715 46.5517 57.875 48.4767 56.195 49.97C54.5383 51.4633 51.785 52.21 47.935 52.21C47.095 52.21 46.29 52.175 45.52 52.105C43.7 52.035 42.615 52 42.265 52H37.61V50.285L40.515 49.935V28.165ZM44.225 37.475C44.5517 37.4983 45.2167 37.51 46.22 37.51H48.145C49.7783 37.51 51.015 37.055 51.855 36.145C52.695 35.235 53.115 33.94 53.115 32.26C53.115 30.6267 52.695 29.4367 51.855 28.69C51.015 27.92 49.58 27.535 47.55 27.535C46.71 27.535 45.8467 27.5817 44.96 27.675L44.225 27.745V37.475ZM44.225 50.04C44.7617 50.2267 45.975 50.32 47.865 50.32C50.2217 50.32 51.925 49.8417 52.975 48.885C54.0483 47.905 54.585 46.505 54.585 44.685C54.585 42.8883 54.1183 41.5817 53.185 40.765C52.275 39.9483 50.7933 39.54 48.74 39.54C46.36 39.54 44.855 39.5633 44.225 39.61V50.04Z" fill="white"/>
<circle opacity="0.2" cx="36" cy="36" r="36" fill="#F275E6"/>
</svg>
